<svg width="60" height="60" viewBox="0 0 60 60" fill="none" xmlns="http://www.w3.org/2000/svg">
<path d="M58.4173 42.9381L54.3055 24.9853C54.1121 24.1409 53.5996 23.4211 52.8624 22.9587C52.7203 22.8697 52.5718 22.7916 52.418 22.725V11.5193C52.418 11.224 52.3006 10.9409 52.0919 10.7321L43.1858 1.82607C42.977 1.61733 42.6938 1.50004 42.3986 1.5H8.05102C7.43629 1.5 6.93777 1.99851 6.93777 2.61325V23.0955C6.30812 23.5573 5.86983 24.2197 5.69449 24.9853L1.58281 42.938C1.38933 43.7824 1.5375 44.6534 1.99995 45.3907C2.46239 46.128 3.18211 46.6405 4.02651 46.8339L7.33108 47.5907C7.57288 47.646 7.81679 47.6734 8.05926 47.6734C8.66331 47.6734 9.25767 47.5034 9.78369 47.1735C10.3786 46.8003 10.8269 46.2595 11.0796 45.6209L22.949 57.3576C23.6846 58.0933 24.6656 58.4986 25.7114 58.4986H25.7122C26.758 58.4984 27.7391 58.0931 28.4748 57.3574C28.8867 56.9469 29.201 56.449 29.3944 55.9007L30.6101 57.1163C31.3457 57.8521 32.3267 58.2573 33.3725 58.2573H33.3733C34.419 58.2572 35.4001 57.8519 36.1358 57.1161C36.5522 56.7012 36.8689 56.1969 37.0617 55.6415C37.7587 56.2185 38.629 56.5323 39.5496 56.5323H39.5502C40.596 56.5321 41.5771 56.1268 42.3128 55.3911C43.0485 54.6556 43.4537 53.6744 43.4538 52.6286C43.4538 52.5002 43.4477 52.3719 43.4355 52.2441C44.3821 52.182 45.2615 51.7854 45.9354 51.1116C46.9412 50.1057 47.2824 48.6834 46.96 47.3946L49.3257 46.3503C49.5684 46.678 49.8705 46.9573 50.2162 47.1736C50.7424 47.5037 51.3364 47.6735 51.9406 47.6735C52.1857 47.6734 52.4299 47.6456 52.6688 47.5908L55.9734 46.834C56.8178 46.6407 57.5375 46.1281 57.9999 45.3908C58.4624 44.6535 58.6107 43.7824 58.4173 42.9381ZM43.5118 5.30086L48.617 10.406H43.5118V5.30086ZM41.2853 3.7265V11.5193C41.2853 12.134 41.7839 12.6325 42.3986 12.6325H50.1915V22.5914L47.1051 23.2982L47.105 23.2983C45.3573 23.6987 44.2611 25.4464 44.6613 27.1941L44.7439 27.5545L43.4672 28.11C42.4481 28.5531 41.38 28.4919 40.3789 27.9327C39.3785 27.3737 38.4903 26.8526 37.7068 26.393C34.0443 24.2445 32.0269 23.061 28.9718 24.203C28.1131 24.524 27.2608 25.1516 26.385 25.9785H15.3828C15.1862 24.6988 14.2317 23.6044 12.895 23.2982L9.59031 22.5413C9.44995 22.5094 9.30762 22.4869 9.16427 22.4738V3.7265H41.2853ZM35.6735 35.3238C33.7013 33.3519 30.606 33.0727 28.3131 34.6604C24.8031 37.0911 22.482 38.0081 20.2595 36.0178C21.8699 34.5191 23.371 32.7415 24.7196 31.1444C26.6074 28.909 28.3903 26.7975 29.7514 26.2886C31.7202 25.5528 32.9595 26.1893 36.5801 28.3134C37.3731 28.7787 38.2719 29.3059 39.293 29.8764C40.9006 30.7744 42.6983 30.8722 44.3555 30.1517L45.2496 29.7627L48.5679 44.2511L45.8156 45.466L35.6735 35.3238ZM8.60063 45.2872C8.36707 45.4336 8.09266 45.4812 7.82815 45.4202L4.52357 44.6634C4.25895 44.6029 4.03252 44.4409 3.88602 44.2074C3.73951 43.974 3.69242 43.6997 3.75309 43.4351L7.86489 25.4822C7.92545 25.2175 8.08743 24.9912 8.32087 24.8447C8.48405 24.7414 8.67313 24.6863 8.86626 24.6859C8.94196 24.6859 12.3978 25.4684 12.3978 25.4684C12.9489 25.5946 13.2945 26.1457 13.1683 26.6968L9.05651 44.6498C8.99595 44.9145 8.83408 45.1409 8.60063 45.2872ZM44.3612 49.537C44.0459 49.8523 43.6237 50.0261 43.1724 50.0262C42.7212 50.0262 42.2992 49.8526 41.984 49.5372L34.0774 41.63C33.6427 41.1955 32.938 41.1954 32.5029 41.63C32.0682 42.0648 32.0682 42.7696 32.5029 43.2045L40.7386 51.4401C41.0539 51.7552 41.2275 52.1772 41.2275 52.6284C41.2273 53.0796 41.0538 53.5016 40.7385 53.8168C40.4232 54.1321 40.0011 54.3058 39.5498 54.3059C39.0987 54.3059 38.6767 54.1324 38.3615 53.8171L29.8559 45.311C29.4213 44.8765 28.7166 44.8764 28.2815 45.311C27.8467 45.7457 27.8467 46.4505 28.2815 46.8855L34.5909 53.1954C34.8876 53.507 35.0504 53.9166 35.0504 54.3535C35.0503 54.8047 34.8767 55.2267 34.5614 55.5419C34.246 55.8574 33.8231 56.0313 33.3724 56.031C32.9214 56.031 32.4996 55.8575 32.1844 55.5422L25.2776 48.6352C24.843 48.2007 24.1383 48.2004 23.7031 48.6352C23.2684 49.0699 23.2684 49.7748 23.7031 50.2096L26.9231 53.4297C27.2239 53.7422 27.3892 54.1547 27.3891 54.5948C27.3891 55.046 27.2154 55.4681 26.9003 55.7832C26.585 56.0986 26.1628 56.2723 25.7115 56.2724H25.7112C25.2602 56.2724 24.8384 56.0988 24.5188 55.7792L11.6959 43.0991L15.1071 28.205H24.2986C23.8821 28.6855 23.4565 29.1893 23.0186 29.7079C21.4085 31.6146 19.7436 33.5862 17.9431 35.0958C17.4731 35.4899 17.4105 36.1898 17.8028 36.6613C19.4411 38.629 21.1848 39.3184 22.8603 39.3182C25.4974 39.318 27.9649 37.6097 29.5805 36.4909C31.0109 35.5006 32.8689 35.6679 34.099 36.8982L44.3612 47.1602C45.0165 47.8155 45.0165 48.8817 44.3612 49.537ZM56.1139 44.2075C55.9675 44.441 55.7409 44.603 55.4763 44.6635L52.1717 45.4203C51.9073 45.4813 51.6327 45.4337 51.3992 45.2873C51.1658 45.141 51.0039 44.9146 50.9434 44.6498L46.8316 26.697C46.7053 26.1459 47.051 25.5949 47.602 25.4686L50.9066 24.7118C51.1719 24.6511 51.4458 24.6985 51.679 24.8448C51.9124 24.9912 52.0744 25.2176 52.135 25.4823L56.2469 43.4353C56.3076 43.6998 56.2604 43.9741 56.1139 44.2075ZM15.994 12.3442C15.9941 10.5497 17.3135 9.03393 19.1055 8.57627L19.0882 7.8511C19.0735 7.23647 19.5598 6.72627 20.1745 6.71157C20.7858 6.69732 21.2994 7.18315 21.3141 7.79788L21.3333 8.6031C22.3148 8.86983 23.4292 9.44171 23.9464 10.2287C24.2841 10.7424 24.1413 11.4326 23.6275 11.7704C23.1135 12.1081 22.4234 11.9652 22.0857 11.4516C21.8885 11.1514 20.8246 10.6615 20.2383 10.6615C19.1258 10.6615 18.2206 11.4164 18.2205 12.3443C18.2205 13.2721 19.1256 14.027 20.2383 14.027C22.5786 14.027 24.4826 15.7807 24.4826 17.9361C24.4826 19.7297 23.1643 21.2452 21.3733 21.7035L21.3883 22.3261C21.4031 22.9408 20.9169 23.4511 20.3022 23.4659L20.2749 23.4662C19.6725 23.4662 19.1771 22.9854 19.1625 22.3798L19.1467 21.7254C18.1511 21.4901 17.4885 20.9383 16.8546 20.3402C16.4073 19.9184 16.3869 19.2138 16.8089 18.7665C17.2307 18.3193 17.9354 18.2988 18.3825 18.7207C19.0968 19.3946 19.4652 19.6188 20.2383 19.6188C21.3509 19.6188 22.2561 18.864 22.2561 17.9361C22.2561 17.0083 21.3509 16.2535 20.2383 16.2535C17.8979 16.2535 15.994 14.4998 15.994 12.3442ZM28.1424 14.9217C28.1424 14.307 28.6409 13.8084 29.2557 13.8084H37.4381C38.0528 13.8084 38.5513 14.307 38.5513 14.9217C38.5513 15.5364 38.0528 16.0349 37.4381 16.0349H29.2557C28.6409 16.0349 28.1424 15.5364 28.1424 14.9217ZM28.1424 19.2634C28.1424 18.6486 28.6409 18.1501 29.2557 18.1501H37.4381C38.0528 18.1501 38.5513 18.6486 38.5513 19.2634C38.5513 19.8781 38.0528 20.3766 37.4381 20.3766H29.2557C28.6409 20.3766 28.1424 19.8782 28.1424 19.2634ZM28.1424 10.5799C28.1424 9.96516 28.6409 9.46665 29.2557 9.46665H37.4381C38.0528 9.46665 38.5513 9.96516 38.5513 10.5799C38.5513 11.1946 38.0528 11.6931 37.4381 11.6931H29.2557C28.6409 11.6931 28.1424 11.1946 28.1424 10.5799Z" fill="#F7931A"/>
</svg>
