<svg width="60" height="60" viewBox="0 0 60 60" fill="none" xmlns="http://www.w3.org/2000/svg">
<path d="M30.0014 8.85713C21.6186 8.85713 14.7986 15.6771 14.7986 24.0599C14.7986 32.4428 21.6186 39.2628 30.0014 39.2628C38.3842 39.2628 45.2042 32.4428 45.2042 24.0599C45.2042 15.6771 38.3842 8.85713 30.0014 8.85713ZM30.0014 37.0361C22.8462 37.0361 17.0252 31.215 17.0252 24.0598C17.0252 16.9046 22.8462 11.0837 30.0014 11.0837C37.1566 11.0837 42.9776 16.9047 42.9776 24.0599C42.9776 31.2151 37.1566 37.0361 30.0014 37.0361ZM46.26 39.6834C50.1601 35.6264 52.5613 30.1185 52.5613 24.0599C52.5614 11.6203 42.441 1.5 30.0014 1.5C17.5618 1.5 7.44141 11.6203 7.44141 24.06C7.44141 30.1186 9.84265 35.6264 13.7426 39.6834L7.91733 49.7731C7.81013 49.9586 7.75876 50.1712 7.76939 50.3852C7.78002 50.5992 7.8522 50.8056 7.97726 50.9796C8.10232 51.1536 8.27495 51.2878 8.47442 51.3661C8.67389 51.4445 8.89172 51.4635 9.10176 51.4211L16.8302 49.861L19.3434 57.334C19.4117 57.5371 19.5371 57.7161 19.7047 57.8497C19.8722 57.9832 20.0747 58.0656 20.2879 58.0869C20.5011 58.1082 20.7159 58.0676 20.9065 57.9698C21.0971 57.8721 21.2555 57.7214 21.3627 57.5359L27.7308 46.5063C29.2406 46.658 30.7619 46.658 32.2717 46.5063L38.8753 57.9435C38.9824 58.129 39.1408 58.2797 39.3315 58.3774C39.5221 58.4751 39.7369 58.5158 39.9501 58.4945C40.1633 58.4732 40.3658 58.3908 40.5333 58.2573C40.7008 58.1237 40.8263 57.9447 40.8946 57.7416L43.4078 50.2687L51.1362 51.8286C51.3463 51.8711 51.5641 51.852 51.7635 51.7737C51.963 51.6954 52.1356 51.5612 52.2607 51.3872C52.3858 51.2132 52.4579 51.0068 52.4686 50.7928C52.4792 50.5787 52.4278 50.3662 52.3206 50.1806L46.26 39.6834ZM20.6678 54.2865L18.6277 48.2205C18.5412 47.9635 18.3639 47.7469 18.1291 47.6113C17.8942 47.4757 17.618 47.4305 17.3522 47.4841L11.0788 48.7504L15.4091 41.2501C18.2222 43.6418 21.627 45.357 25.3706 46.1411L20.6678 54.2865ZM9.66797 24.06C9.66797 12.8481 18.7895 3.72657 30.0014 3.72657C41.2133 3.72657 50.3349 12.8481 50.3349 24.06C50.3349 35.2719 41.2133 44.3934 30.0014 44.3934C18.7895 44.3934 9.66797 35.2719 9.66797 24.06ZM42.8859 47.8918C42.6201 47.8382 42.3438 47.8835 42.109 48.0191C41.8742 48.1547 41.6969 48.3713 41.6104 48.6283L39.5703 54.6942L34.6321 46.1411C38.3756 45.357 41.7804 43.6418 44.5937 41.2501L49.1592 49.158L42.8859 47.8918ZM34.8877 27.4912C34.8877 29.6043 33.285 31.3794 31.1366 31.8502L31.1592 32.7866C31.1742 33.4012 30.6879 33.9115 30.0731 33.9264L30.0457 33.9267C29.4434 33.9267 28.948 33.4459 28.9333 32.8403L28.9098 31.8689C27.6644 31.6195 26.8537 30.9512 26.0808 30.2221C25.6335 29.8002 25.6131 29.0956 26.0349 28.6483C26.4569 28.2011 27.1613 28.1806 27.6088 28.6024C28.5041 29.4472 29.0001 29.747 30.0015 29.747C31.4681 29.747 32.6613 28.735 32.6613 27.491C32.6613 26.2471 31.4679 25.2352 30.0014 25.2352C27.3072 25.2352 25.1151 23.2243 25.1151 20.7527C25.1151 18.6387 26.7191 16.863 28.869 16.3931L28.8436 15.3331C28.8289 14.7185 29.3152 14.2082 29.9299 14.1935C30.5407 14.177 31.0548 14.6651 31.0695 15.2799L31.0959 16.3838C31.962 16.5648 32.7605 16.9594 33.4107 17.54C33.8694 17.9494 33.9093 18.6531 33.4997 19.1118C33.0904 19.5705 32.3865 19.6104 31.9278 19.2008C31.4194 18.7469 30.7352 18.4968 30.0013 18.4968C28.5348 18.4968 27.3416 19.5088 27.3416 20.7528C27.3416 21.9968 28.5349 23.0086 30.0014 23.0086C32.6957 23.0086 34.8877 25.0196 34.8877 27.4912Z" fill="#F7931A"/>
</svg>
