<svg width="60" height="60" viewBox="0 0 60 60" fill="none" xmlns="http://www.w3.org/2000/svg">
<path d="M58.2088 30.5939C58.1045 30.4797 57.9775 30.3885 57.836 30.3261C57.6945 30.2637 57.5415 30.2315 57.3868 30.2315H34.6402C34.4201 30.2316 34.2049 30.2969 34.0218 30.4192C33.8388 30.5416 33.6961 30.7154 33.6119 30.9188C33.5276 31.1222 33.5056 31.3461 33.5485 31.562C33.5914 31.7779 33.6974 31.9763 33.853 32.132L49.3386 47.6175C49.5474 47.8262 49.8306 47.9435 50.1258 47.9435C50.421 47.9435 50.7042 47.8262 50.913 47.6175C55.2519 43.2786 57.9447 37.5351 58.4954 31.4451C58.5094 31.2911 58.4911 31.1359 58.4418 30.9893C58.3924 30.8427 58.3131 30.7081 58.2088 30.5939ZM50.1075 45.2376L37.3279 32.4581H56.1366C55.4589 37.2105 53.3525 41.6764 50.1075 45.2376ZM28.8709 30.4901V5.80696C28.8709 5.1921 28.3723 4.69368 27.7576 4.69368C20.7439 4.69368 14.15 7.4249 9.19067 12.3844C4.23122 17.3437 1.5 23.9376 1.5 30.9513C1.5 37.9649 4.23122 44.5588 9.19067 49.5182C14.15 54.4775 20.7439 57.2088 27.7576 57.2088C34.7713 57.2088 41.3651 54.4776 46.3246 49.5182C46.5333 49.3094 46.6506 49.0262 46.6506 48.7309C46.6506 48.4357 46.5333 48.1525 46.3246 47.9437L28.8709 30.4901ZM27.7576 54.9823C14.5068 54.9823 3.72657 44.202 3.72657 30.9513C3.72657 18.0733 13.9079 7.52888 26.6443 6.94574V30.9513C26.6443 31.2465 26.7616 31.5297 26.9704 31.7385L43.9453 48.7132C39.5097 52.7641 33.8039 54.9823 27.7576 54.9823ZM32.346 27.8697H57.3849C57.5396 27.8697 57.6926 27.8375 57.8341 27.7751C57.9756 27.7127 58.1025 27.6215 58.2068 27.5073C58.3111 27.3931 58.3905 27.2585 58.4399 27.1119C58.4893 26.9653 58.5076 26.8101 58.4937 26.6561C57.9058 20.1574 54.9254 14.1382 50.1014 9.70713C45.2473 5.24843 38.9416 2.79297 32.346 2.79297C31.7312 2.79297 31.2327 3.29139 31.2327 3.90625V26.7564C31.2327 27.3713 31.7312 27.8697 32.346 27.8697ZM33.4593 5.04458C45.0623 5.5636 54.5246 14.1674 56.1362 25.6432H33.4593V5.04458ZM22.5453 37.4241C22.5453 39.55 20.9316 41.3368 18.7688 41.8079L18.7916 42.7554C18.8064 43.37 18.3203 43.8804 17.7055 43.8952L17.6781 43.8955C17.0757 43.8955 16.5803 43.4147 16.5657 42.8091L16.542 41.8274C15.2857 41.5778 14.4705 40.9026 13.6917 40.1679C13.2444 39.746 13.224 39.0414 13.6459 38.5942C14.0679 38.147 14.7725 38.1264 15.2197 38.5483C16.1226 39.4002 16.6231 39.7027 17.6337 39.7027C19.1143 39.7027 20.3187 38.6804 20.3187 37.424C20.3187 36.1675 19.1143 35.1454 17.6337 35.1454C14.9254 35.1454 12.7221 33.1244 12.7221 30.6402C12.7221 28.5134 14.3372 26.7261 16.5013 26.2559L16.4757 25.1839C16.461 24.5692 16.9473 24.059 17.562 24.0443C17.571 24.0441 17.5802 24.044 17.5892 24.044C18.1917 24.044 18.6871 24.525 18.7016 25.1307L18.7292 26.2838C19.9088 26.5688 21.3062 27.2492 21.9339 28.2042C22.2715 28.7181 22.1287 29.4083 21.6148 29.746C21.101 30.0836 20.4107 29.9407 20.073 29.4269C19.7721 28.9689 18.3815 28.3615 17.6337 28.3615C16.1532 28.3615 14.9487 29.3837 14.9487 30.6401C14.9487 31.8965 16.1532 32.9188 17.6337 32.9188C20.342 32.9189 22.5453 34.9399 22.5453 37.4241Z" fill="#F7931A"/>
</svg>
